<svg width="60" height="81" viewBox="0 0 60 81" fill="none" xmlns="http://www.w3.org/2000/svg">
<path d="M56.3 38.6V28.5H52.8V24.8H45.8V21.3H38V24.8H35.4V21.3H28.6V4.3H25.1V0.699997H17.3V4.2H14.2V38.5H11.5V35H3.7V38.8H0V46.6H3.5V53.4H7V60.2H10.5V67H14V74H17.1V80.8H52.6V70.5H56.1V57H59.6V38.6H56.3ZM55.3 56H51.8V69.5H48.3V76.2H21.8V73H18.7V66.2H15.2V59.4H11.7V52.6H8V45.8H4.5V39.7H10.5V43.4H14.2V50.2H18.7V5.3H24.1V36.1H28.6V25.8H34.5V36.1H39V25.8H44.8V36.1H49.3V29.5H51.6V39.8H55.1V56H55.3Z" fill="white"/>
</svg>
