<svg width="1080" height="403" viewBox="0 0 1080 403" fill="none" xmlns="http://www.w3.org/2000/svg">
<path d="M46.6 190.8C47.9 203.9 56.8 212.4 69.2 212.4C80.7 212.4 87.9 207.2 87.9 197.6C87.9 170.7 9.20002 185.8 9.20002 127.1C9.20002 93.3 36.7 73.7 71.8 73.7C108.2 73.7 130.2 92.4 133.1 121.6L91.5 126.8C90.8 115 84.3 106.8 72.2 106.8C61.7 106.8 55.1 112.4 55.1 121.6C55.1 148.2 134.8 132.7 134.8 192.8C134.8 226.9 107.6 246.2 69.2 246.2C34.4 246.2 9.20002 229.1 4.90002 199L46.6 190.8Z" fill="#404153"/>
<path d="M222.1 73.7C259.8 73.7 282.4 95.7 285.1 129.8L241.5 138.3C240.8 122.2 235.6 110.8 223.1 110.8C207 110.8 199.8 128.5 199.8 160C199.8 192.1 207 209.2 223.1 209.2C234.6 209.2 240.8 198.4 242.1 181.3L285.7 193.1C280.8 225.9 257.2 246.2 222.7 246.2C177.8 246.2 149.9 214.1 149.9 160C149.9 105.9 178.1 73.7 222.1 73.7Z" fill="#404153"/>
<path d="M357.5 77V242.9H307V77H357.5Z" fill="#404153"/>
<path d="M476.2 185.9L517.8 197.7C510.3 229.5 485 246.2 453.9 246.2C409 246.2 381.1 214.4 381.1 160.9C381.1 108.1 408 73.7 454.9 73.7C498.5 73.7 519.2 105.8 519.2 145.8C519.2 153 518.2 161.9 516.9 169.4H429.3C429.6 195 438.8 209.1 454.5 209.1C466.3 209.1 473.2 200.6 476.2 185.9ZM472.9 144.2C473.2 141.6 473.2 139.3 473.2 136.7C473.2 122.3 467.6 109.5 453.9 109.5C439.5 109.5 430.9 123.6 429.6 144.3H472.9V144.2Z" fill="#404153"/>
<path d="M590.9 107.5C597.5 85.9 615.2 73.7 637.8 73.7C665.3 73.7 684 91.4 684 123.5V242.9H633.5V138C633.5 124.2 628.6 115.4 615.8 115.4C603.3 115.4 593.2 124.6 593.2 147.2V242.9H542.7V77H585.3L590.9 107.5Z" fill="#404153"/>
<path d="M778.5 73.7C816.2 73.7 838.8 95.7 841.5 129.8L797.9 138.3C797.2 122.2 792 110.8 779.5 110.8C763.4 110.8 756.2 128.5 756.2 160C756.2 192.1 763.4 209.2 779.5 209.2C791 209.2 797.2 198.4 798.5 181.3L842.1 193.1C837.2 225.9 813.6 246.2 779.1 246.2C734.2 246.2 706.3 214.1 706.3 160C706.3 105.9 734.6 73.7 778.5 73.7Z" fill="#404153"/>
<path d="M950.6 185.9L992.2 197.7C984.7 229.5 959.4 246.2 928.3 246.2C883.4 246.2 855.5 214.4 855.5 160.9C855.5 108.1 882.4 73.7 929.3 73.7C972.9 73.7 993.6 105.8 993.6 145.8C993.6 153 992.6 161.9 991.3 169.4H903.7C904 195 913.2 209.1 928.9 209.1C940.8 209.1 947.7 200.6 950.6 185.9ZM947.4 144.2C947.7 141.6 947.7 139.3 947.7 136.7C947.7 122.3 942.1 109.5 928.4 109.5C914 109.5 905.4 123.6 904.1 144.3H947.4V144.2Z" fill="#404153"/>
<path d="M1075 192.4H1024.5V242.9H1075V192.4Z" fill="#E17D7F"/>
<path d="M1025.4 305.8V275.2H1074.1V305.8H1068.7V281.1H1052.9V303.1H1047.5V281.1H1030.8V305.8H1025.4Z" fill="#E17D7F"/>
<path d="M1025.4 329.5H1068.7V312.8H1074.1V352.4H1068.7V335.7H1025.4V329.5Z" fill="#E17D7F"/>
<path d="M1075 377.1C1075 385.8 1071.1 391.3 1063.7 394.2L1060.7 388.9C1066.6 387.2 1069.7 382.8 1069.7 377C1069.7 368 1062.1 362.6 1049.7 362.6C1037.3 362.6 1029.7 367.9 1029.7 377C1029.7 382.8 1032.9 387.2 1038.7 388.9L1035.8 394.2C1028.3 391.3 1024.4 385.7 1024.4 377.1C1024.4 365.3 1033.4 356.2 1049.6 356.2C1066 356.2 1075 365.3 1075 377.1Z" fill="#E17D7F"/>
<path d="M357.5 5.80005H307V56.3H357.5V5.80005Z" fill="#404153"/>
</svg>
