<?xml version="1.0" encoding="utf-8"?>
<!-- Generator: Adobe Illustrator 22.1.0, SVG Export Plug-In . SVG Version: 6.00 Build 0)  -->
<svg version="1.1" id="Layer_1" xmlns="http://www.w3.org/2000/svg" xmlns:xlink="http://www.w3.org/1999/xlink" x="0px" y="0px"
	 viewBox="0 0 1080 403" enable-background="new 0 0 1080 403" xml:space="preserve">
<path fill="#282828" d="M46.6,190.8c1.3,13.1,10.2,21.6,22.6,21.6c11.5,0,18.7-5.2,18.7-14.8c0-26.9-78.7-11.8-78.7-70.5
	c0-33.8,27.5-53.4,62.6-53.4c36.4,0,58.4,18.7,61.3,47.9l-41.6,5.2c-0.7-11.8-7.2-20-19.3-20c-10.5,0-17.1,5.6-17.1,14.8
	c0,26.6,79.7,11.1,79.7,71.2c0,34.1-27.2,53.4-65.6,53.4c-34.8,0-60-17.1-64.3-47.2L46.6,190.8z"/>
<path fill="#282828" d="M222.1,73.7c37.7,0,60.3,22,63,56.1l-43.6,8.5c-0.7-16.1-5.9-27.5-18.4-27.5c-16.1,0-23.3,17.7-23.3,49.2
	c0,32.1,7.2,49.2,23.3,49.2c11.5,0,17.7-10.8,19-27.9l43.6,11.8c-4.9,32.8-28.5,53.1-63,53.1c-44.9,0-72.8-32.1-72.8-86.2
	S178.1,73.7,222.1,73.7z"/>
<path fill="#282828" d="M357.5,77v165.9H307V77H357.5z"/>
<path fill="#282828" d="M476.2,185.9l41.6,11.8c-7.5,31.8-32.8,48.5-63.9,48.5c-44.9,0-72.8-31.8-72.8-85.3
	c0-52.8,26.9-87.2,73.8-87.2c43.6,0,64.3,32.1,64.3,72.1c0,7.2-1,16.1-2.3,23.6h-87.6c0.3,25.6,9.5,39.7,25.2,39.7
	C466.3,209.1,473.2,200.6,476.2,185.9z M472.9,144.2c0.3-2.6,0.3-4.9,0.3-7.5c0-14.4-5.6-27.2-19.3-27.2c-14.4,0-23,14.1-24.3,34.8
	H472.9z"/>
<path fill="#282828" d="M590.9,107.5c6.6-21.6,24.3-33.8,46.9-33.8c27.5,0,46.2,17.7,46.2,49.8v119.4h-50.5V138
	c0-13.8-4.9-22.6-17.7-22.6c-12.5,0-22.6,9.2-22.6,31.8v95.7h-50.5V77h42.6L590.9,107.5z"/>
<path fill="#282828" d="M778.5,73.7c37.7,0,60.3,22,63,56.1l-43.6,8.5c-0.7-16.1-5.9-27.5-18.4-27.5c-16.1,0-23.3,17.7-23.3,49.2
	c0,32.1,7.2,49.2,23.3,49.2c11.5,0,17.7-10.8,19-27.9l43.6,11.8c-4.9,32.8-28.5,53.1-63,53.1c-44.9,0-72.8-32.1-72.8-86.2
	S734.6,73.7,778.5,73.7z"/>
<path fill="#282828" d="M950.6,185.9l41.6,11.8c-7.5,31.8-32.8,48.5-63.9,48.5c-44.9,0-72.8-31.8-72.8-85.3
	c0-52.8,26.9-87.2,73.8-87.2c43.6,0,64.3,32.1,64.3,72.1c0,7.2-1,16.1-2.3,23.6h-87.6c0.3,25.6,9.5,39.7,25.2,39.7
	C940.8,209.1,947.7,200.6,950.6,185.9z M947.4,144.2c0.3-2.6,0.3-4.9,0.3-7.5c0-14.4-5.6-27.2-19.3-27.2c-14.4,0-23,14.1-24.3,34.8
	H947.4z"/>
<rect x="1024.5" y="192.4" fill="#FF3F2C" width="50.5" height="50.5"/>
<g>
	<path fill="#FF3F2C" d="M1025.4,305.8v-30.6h48.7v30.6h-5.4v-24.7h-15.8v22h-5.4v-22h-16.7v24.7H1025.4z"/>
	<path fill="#FF3F2C" d="M1025.4,329.5h43.3v-16.7h5.4v39.6h-5.4v-16.7h-43.3V329.5z"/>
	<path fill="#FF3F2C" d="M1075,377.1c0,8.7-3.9,14.2-11.3,17.1l-3-5.3c5.9-1.7,9-6.1,9-11.9c0-9-7.6-14.4-20-14.4
		c-12.4,0-20,5.3-20,14.4c0,5.8,3.2,10.2,9,11.9l-2.9,5.3c-7.5-2.9-11.4-8.5-11.4-17.1c0-11.8,9-20.9,25.2-20.9
		C1066,356.2,1075,365.3,1075,377.1z"/>
</g>
<rect x="307" y="5.8" fill="#282828" width="50.5" height="50.5"/>
</svg>
